# xmcd
#
# Track frame offsets: 
#        150
#        29039
#        55855
#        89574
#        115617
#        142492
#        171559
#        198398
#        224019
#        248402
#        274639
#        300107
#        326829
#
# Disc length: 4684 seconds
#
# Revision: 0
# Processed by: cddbd v1.5.1PL2 Copyright (c) Steve Scherf et al.
# Submitted via: ExactAudioCopy v0.95b2
#
DISCID=c6124a0d
DTITLE=H.A.W.K. - Under H.A.W.K.'s Wings (Chopped and Screwed)
DYEAR=2005
DGENRE=Screw
TTITLE0=Down N H-Town (Remix)
TTITLE1=H.A.W.K.
TTITLE2=Heart Of A Hustler
TTITLE3=Hater Luv It (When Your Down)
TTITLE4=Do You Luv It
TTITLE5=Roll Up A Blunt
TTITLE6=What's Happenin' Out Here
TTITLE7=Somebody Say "Oh Yea"
TTITLE8=Million Dollar Block
TTITLE9=I Can Make You Dance
TTITLE10=Cheddar
TTITLE11=That's Me
TTITLE12=Under H.A.W.K.'z Wingz
EXTD=
EXTT0=
EXTT1=
EXTT2=
EXTT3=
EXTT4=
EXTT5=
EXTT6=
EXTT7=
EXTT8=
EXTT9=
EXTT10=
EXTT11=
EXTT12=
PLAYORDER=
